<svg xmlns="http://www.w3.org/2000/svg" viewBox="0 0 512 512" role="img" aria-label="SMQ Games">
  <defs>
    <linearGradient id="g" x1="70" y1="40" x2="440" y2="460" gradientUnits="userSpaceOnUse">
      <stop stop-color="#8B5CFF"/>
      <stop offset="0.52" stop-color="#FF48BD"/>
      <stop offset="1" stop-color="#00E8FF"/>
    </linearGradient>
    <radialGradient id="glow" cx="50%" cy="38%" r="62%">
      <stop stop-color="#FFFFFF" stop-opacity="0.9"/>
      <stop offset="0.24" stop-color="#FFFFFF" stop-opacity="0.22"/>
      <stop offset="1" stop-color="#FFFFFF" stop-opacity="0"/>
    </radialGradient>
    <filter id="shadow" x="-30%" y="-30%" width="160%" height="160%">
      <feDropShadow dx="0" dy="18" stdDeviation="18" flood-color="#000000" flood-opacity="0.35"/>
      <feDropShadow dx="0" dy="0" stdDeviation="16" flood-color="#00E8FF" flood-opacity="0.35"/>
    </filter>
  </defs>
  <rect x="42" y="42" width="428" height="428" rx="116" fill="url(#g)" filter="url(#shadow)"/>
  <rect x="72" y="72" width="368" height="368" rx="95" fill="rgba(8,10,28,0.28)" stroke="rgba(255,255,255,0.42)" stroke-width="8"/>
  <circle cx="256" cy="210" r="170" fill="url(#glow)"/>
  <g fill="#fff" font-family="Inter, Arial, sans-serif" text-anchor="middle" font-weight="950">
    <text x="256" y="238" font-size="102" letter-spacing="-8">SMQ</text>
    <text x="256" y="310" font-size="48" letter-spacing="6">GAMES</text>
  </g>
  <g transform="translate(152 340)" fill="none" stroke="#fff" stroke-width="16" stroke-linecap="round" stroke-linejoin="round" opacity="0.92">
    <path d="M38 0h132c24 0 44 20 44 44v12c0 24-20 44-44 44H38C14 100-6 80-6 56V44C-6 20 14 0 38 0Z" fill="rgba(255,255,255,0.12)"/>
    <path d="M55 31v39M35 51h39"/>
    <circle cx="153" cy="50" r="10" fill="#fff" stroke="none"/>
    <circle cx="181" cy="50" r="10" fill="#fff" stroke="none"/>
  </g>
</svg>
